/* XPM */
static char * collectible_xpm[] = {
"32 32 7 1",
" 	c None",
".	c #B3B3B3",
"+	c #404040",
"@	c #FF8C00",
"#	c #FFFFFF",
"$	c #FF0000",
"%	c #FFF000",
"................++++++++++++++++",
"................++++++++++++++++",
"................++++++++++++++++",
"................++++++++++++++++",
"................++++++++++++++++",
"................++++++++++++++++",
"................++++++++++++++++",
"................++++++++++++++++",
"............@@@@@@@@++++++++++++",
"...........@@@@@@@@@@+++++++++++",
"..........@##@@@@@@@@@++++++++++",
".........@@##@@@@@@@@@@+++++++++",
"........@@@@@@@@@@@@@@@@++++++++",
"........@@@@@@@$$@@@@@@@++++++++",
"........@@@@@@@$$@@@@@@@++++++++",
"........@@@@@@@@@@@@@@@@++++++++",
"++++++++@@@@@$$@@$$@@%%@........",
"++++++++@@@@@$$@@$$@@%%@........",
"++++++++@@@@@@@@@@@@%%@@........",
"++++++++@@@@@@@@@@@@%%@@........",
"+++++++++@@@@@@@%%%%@@@.........",
"++++++++++@@@@@@%%%%@@..........",
"+++++++++++@@@@@@@@@@@..........",
"++++++++++++@@@@@@@@@...........",
"++++++++++++++++................",
"++++++++++++++++................",
"++++++++++++++++................",
"++++++++++++++++................",
"++++++++++++++++................",
"++++++++++++++++................",
"++++++++++++++++................",
"++++++++++++++++................"};
