/* XPM */
static char * collectible_xpm[] = {
"64 64 148 2",
"  	c None",
". 	c #85A643",
"+ 	c #84A643",
"@ 	c #81A644",
"# 	c #80A744",
"$ 	c #86A643",
"% 	c #82A643",
"& 	c #79A745",
"* 	c #75A845",
"= 	c #76A845",
"- 	c #83A643",
"; 	c #7EA744",
"> 	c #89A642",
", 	c #A1A23D",
"' 	c #AAA13B",
") 	c #A8A13B",
"! 	c #A8A13C",
"~ 	c #6AA947",
"{ 	c #98A43F",
"] 	c #DB9728",
"^ 	c #F29016",
"/ 	c #EF911A",
"( 	c #ED921C",
"_ 	c #83A644",
": 	c #7EA745",
"< 	c #85A540",
"[ 	c #97A132",
"} 	c #C29817",
"| 	c #F68A00",
"1 	c #FF8500",
"2 	c #FF8800",
"3 	c #FF8A00",
"4 	c #FF8900",
"5 	c #F68F11",
"6 	c #C29C34",
"7 	c #97A440",
"8 	c #6AA94A",
"9 	c #97A236",
"0 	c #D98D00",
"a 	c #F78000",
"b 	c #FF7D00",
"c 	c #FF8000",
"d 	c #FF8C0C",
"e 	c #FF8C01",
"f 	c #FF8B00",
"g 	c #FF8C00",
"h 	c #F78F11",
"i 	c #D99729",
"j 	c #C2A34D",
"k 	c #F7A872",
"l 	c #FFAC80",
"m 	c #FFAE81",
"n 	c #FFA670",
"o 	c #FF9339",
"p 	c #F78F10",
"q 	c #FFDED1",
"r 	c #FFF4F0",
"s 	c #FF8100",
"t 	c #C29816",
"u 	c #FFFFFF",
"v 	c #FFAF82",
"w 	c #FF8700",
"x 	c #F78A00",
"y 	c #FF8D00",
"z 	c #FF8E00",
"A 	c #FF9000",
"B 	c #FF9100",
"C 	c #FF8C06",
"D 	c #FF8D10",
"E 	c #FF8D0F",
"F 	c #FF8D05",
"G 	c #FF8C02",
"H 	c #FF9002",
"I 	c #FF5700",
"J 	c #FF3300",
"K 	c #FF0000",
"L 	c #FF8F00",
"M 	c #FF8200",
"N 	c #FF5800",
"O 	c #FF9200",
"P 	c #FF7C00",
"Q 	c #FF8300",
"R 	c #FFA200",
"S 	c #FFA900",
"T 	c #FFA100",
"U 	c #ED901C",
"V 	c #FFD300",
"W 	c #FFE600",
"X 	c #FFD200",
"Y 	c #FFA000",
"Z 	c #ED8A1C",
"` 	c #A89F3C",
" .	c #FF3400",
"..	c #FF7F00",
"+.	c #FFA600",
"@.	c #FFE400",
"#.	c #FFFD00",
"$.	c #FFFE00",
"%.	c #FFA800",
"&.	c #ED861C",
"*.	c #A89E3C",
"=.	c #FF7E00",
"-.	c #FF7800",
";.	c #FFE000",
">.	c #FFFA00",
",.	c #FF5600",
"'.	c #FF9300",
").	c #FF9C00",
"!.	c #FFBB00",
"~.	c #FFE500",
"{.	c #FFF200",
"].	c #FFE900",
"^.	c #FFD100",
"/.	c #FF9A00",
"(.	c #FFA700",
"_.	c #FF7500",
":.	c #EF921A",
"<.	c #FF7300",
"[.	c #FFA601",
"}.	c #FF7B00",
"|.	c #FFA500",
"1.	c #FFB500",
"2.	c #FFD600",
"3.	c #F68C11",
"4.	c #FFE200",
"5.	c #FFE100",
"6.	c #FFA701",
"7.	c #F78D11",
"8.	c #FFFC00",
"9.	c #FFF900",
"0.	c #FFF700",
"a.	c #FF7200",
"b.	c #FD8404",
"c.	c #F68D11",
"d.	c #DA9829",
"e.	c #F18E17",
"f.	c #C09C34",
"g.	c #FF8600",
"h.	c #ED921B",
"i.	c #9FA23E",
"j.	c #66A947",
"k.	c #7DA744",
"l.	c #FF9201",
"m.	c #A7A13C",
"n.	c #70A846",
"o.	c #7FA744",
"p.	c #FF8D01",
"q.	c #C19C34",
". . . . . . . . . . . . . . . . . . . . . . . . . . . . . . . . . . . . . . . . . . . . . . . . . . . . . . . . . . . . . . . . ",
". . . . . . . . . . . . . . . . . . . . . . . . . . . . . . . . . . . . . . . . . . . . . . . . . . . . . . . . . . . . . . . . ",
". . . . . . . . . . . . . . . . . . . . . . . . . . . . . . . . . . . . . . . . . . . . . . . . . . . . . . . . . . . . . . . . ",
". . . . . . . . . . . . . . . . . . . . . . . . . . . . . . . . . . . . . . . . . . . . . . . . . . . . . . . . . . . . . . . . ",
". . . . . . . . . . . . . . . . . . . . . . . . . . . . . . . . . . . . . . . . . . . . . . . . . . . . . . . . . . . . . . . . ",
". . . . . . . . . . . . . . . . . . . . . . . . . . . . . . . . . . . . . . . . . . . . . . . . . . . . . . . . . . . . . . . . ",
". . . . . . . . . . . . . . . . . . . . . . . . . . . . . . . . . . . . . . . . . . . . . . . . . . . . . . . . . . . . . . . . ",
". . . . . . . . . . . . . . . . . . . . . . . . . . . . . . . . . . . . . . . . . . . . . . . . . . . . . . . . . . . . . . . . ",
". . . . . . . . . . . . . . . . . . . . . . . . . . . . . . . . . . . . . . . . . . . . . . . . . . . . . . . . . . . . . . . . ",
". . . . . . . . . . . . . . . . . . . . . . . . . . . . . . . . . . . . . . . . . . . . . . . . . . . . . . . . . . . . . . . . ",
". . . . . . . . . . . . . . . . . . . . . . . . . . . . . . . . . . . . . . . . . . . . . . . . . . . . . . . . . . . . . . . . ",
". . . . . . . . . . . . . . . . . . . . . . . . . . . . . . . . . . . . . . . . . . . . . . . . . . . . . . . . . . . . . . . . ",
". . . . . . . . . . . . . . . . . . . . . . . . . . . . . . . . . . . . . . . . . . . . . . . . . . . . . . . . . . . . . . . . ",
". . . . . . . . . . . . . . . . . . . . . . . + @ # # # # # # # # # # # # # # @ + . . . . . . . . . . . . . . . . . . . . . . . ",
". . . . . . . . . . . . . . . . . . . . . . $ % & * * = = = = = = = = = = * * & % $ . . . . . . . . . . . . . . . . . . . . . . ",
". . . . . . . . . . . . . . . . . . . . . - ; > , ' ) ! ! ! ! ! ! ! ! ! ! ) ' , > ; - . . . . . . . . . . . . . . . . . . . . . ",
". . . . . . . . . . . . . . . . . . . . $ ; ~ { ] ^ / ( ( ( ( ( ( ( ( ( ( / ^ ] { ~ ; $ . . . . . . . . . . . . . . . . . . . . ",
". . . . . . . . . . . . . . . . . . . _ : < [ } | 1 2 3 3 3 3 3 3 3 3 3 3 4 2 5 6 7 . ; - . . . . . . . . . . . . . . . . . . . ",
". . . . . . . . . . . . . . . . . . $ : 8 9 0 a b c 4 d e f f f f f f f f f f g h i 7 ~ ; $ . . . . . . . . . . . . . . . . . . ",
". . . . . . . . . . . . . . . . . - ; < 9 j k l m n o 4 f g g g g g g g g g e f 4 p 6 7 . ; - . . . . . . . . . . . . . . . . . ",
". . . . . . . . . . . . . . . . $ ; ~ [ 0 k q r r q n s 4 g g g g g g g g g g g f g p i 7 ~ ; $ . . . . . . . . . . . . . . . . ",
". . . . . . . . . . . . . . . - ; . 7 t a l r u u r v b w g g g g g g g g g g g e f 4 p 6 7 . ; - . . . . . . . . . . . . . . . ",
". . . . . . . . . . . . . . $ ; ~ 7 i x b m r u u r v b w g g g g g g g g g g g g g f g p i 7 ~ ; $ . . . . . . . . . . . . . . ",
". . . . . . . . . . . . . + % > { 6 h 1 c n q r r q n s 2 g y z z y g g g g g g g g e f 4 h 6 { > % + . . . . . . . . . . . . . ",
". . . . . . . . . . . . . @ & , ] 5 g 3 4 o n v v n o 4 f y A B B A y g g g g g g g g g f g 5 ] , & @ . . . . . . . . . . . . . ",
". . . . . . . . . . . . . # * ' ^ 2 f C D 4 s b b s 4 E F 4 s b b s 4 y g g g g g g g g e f 2 ^ ' * # . . . . . . . . . . . . . ",
". . . . . . . . . . . . . # * ) / 4 f G C f 4 w w 4 f F H s I J J I s A y g g g g g g g g f 4 / ) * # . . . . . . . . . . . . . ",
". . . . . . . . . . . . . # = ! ( 3 f g g g g g g g g z B b J K K J b B z g g g g g g g g f 3 ( ! = # . . . . . . . . . . . . . ",
". . . . . . . . . . . . . # = ! ( 3 f g g g g g g g g z B b J K K J b B z g g g g g g g g f 3 ( ! = # . . . . . . . . . . . . . ",
". . . . . . . . . . . . . # = ! ( 3 f g g g g g g g y L B M N J J N M B L y g g g f 4 2 2 2 4 ( ! = # . . . . . . . . . . . . . ",
". . . . . . . . . . . . . # = ! ( 3 f g g g g g g y A B O y M P P M y O B A y g y 3 Q c c Q 2 ( ! = # . . . . . . . . . . . . . ",
". . . . . . . . . . . . . # = ! ( 3 f g g g g g y 4 s b P M y O O y M P b s 4 g 3 O R S S T A U ! = # . . . . . . . . . . . . . ",
". . . . . . . . . . . . . # = ! ( 3 f g g g g y A s I J J N M O O M N J J I s y 1 R V W W X Y Z ` = # . . . . . . . . . . . . . ",
". . . . . . . . . . . . . # = ! ( 3 f g g g g z B b J K K J b O O b J K K  .b g ..+.@.#.$.W %.&.*.= # . . . . . . . . . . . . . ",
". . . . . . . . . . . . . # = ! ( 3 f g g g g z B b J K K J b O O b J K K  .=.f -.Y ;.>.#.W %.&.*.= # . . . . . . . . . . . . . ",
". . . . . . . . . . . . . # = ! ( 3 f g g g g y A s I J J I s B B s I J J ,...'.).!.~.{.].^.Y Z ` = # . . . . . . . . . . . . . ",
". . . . . . . . . . . . . # = ! ( 3 f g g g g g y 4 s b b s 4 y y 4 s b b =.c R X ].{.~.!./.y U ! = # . . . . . . . . . . . . . ",
". . . . . . . . . . . . . # * ) / 4 f g g g g g g y A B B A y f 4 4 g y y 2 b (.W #.>.;.Y _.Q :.) * # . . . . . . . . . . . . . ",
". . . . . . . . . . . . . # * ' ^ 2 f e g g g g g g y z z y y 3 Q c M Q Q =.<.R ~.$.#.@.[.}.Q ^ ' * # . . . . . . . . . . . . . ",
". . . . . . . . . . . . . @ & , ] 5 g f g g g g g g g g g f 3 O R S (.(.(.|.R 1.2.~.W X T Q 3.] , & @ . . . . . . . . . . . . . ",
". . . . . . . . . . . . . + % > { 6 h 4 f e g g g g g g g 4 Q R V ~.4.;.;.5.@.2.1.R 6.T L 7.6 { > % + . . . . . . . . . . . . . ",
". . . . . . . . . . . . . . $ ; ~ 7 i p g f g g g g g g g 2 c S W 8.9.0.0.9.#.~.R a.}.b.c.d.7 ~ ; $ . . . . . . . . . . . . . . ",
". . . . . . . . . . . . . . . - ; . 7 6 p 4 f e g g g g g 2 c S W 8.9.0.0.9.8.W (.}.M e.f.7 . ; - . . . . . . . . . . . . . . . ",
". . . . . . . . . . . . . . . . $ ; ~ 7 i p g f g g g g g 4 Q R V ~.4.;.;.4.~.V R M g.h.i.j.k.$ . . . . . . . . . . . . . . . . ",
". . . . . . . . . . . . . . . . . - ; . 7 6 p 4 f e g g g f 3 O R S (.(.(.(.S R l.4 w ^ m.n.o.. . . . . . . . . . . . . . . . . ",
". . . . . . . . . . . . . . . . . . $ ; ~ 7 i h g f f f f g g 4 Q ..c c c c ..M 4 p.5 ] , & @ . . . . . . . . . . . . . . . . . ",
". . . . . . . . . . . . . . . . . . . - ; . 7 6 5 2 4 3 3 3 3 4 w g.g.g.g.g.g.g.w 5 q.{ > % + . . . . . . . . . . . . . . . . . ",
". . . . . . . . . . . . . . . . . . . . $ ; ~ { ] ^ / ( ( ( ( ( ( ( ( ( ( ( ( / ^ ] { ~ ; $ . . . . . . . . . . . . . . . . . . ",
". . . . . . . . . . . . . . . . . . . . . - ; > , ' ) ! ! ! ! ! ! ! ! ! ! ! ! ) ' , > ; - . . . . . . . . . . . . . . . . . . . ",
". . . . . . . . . . . . . . . . . . . . . . $ % & * * = = = = = = = = = = = = * * & % $ . . . . . . . . . . . . . . . . . . . . ",
". . . . . . . . . . . . . . . . . . . . . . . + @ # # # # # # # # # # # # # # # # @ + . . . . . . . . . . . . . . . . . . . . . ",
". . . . . . . . . . . . . . . . . . . . . . . . . . . . . . . . . . . . . . . . . . . . . . . . . . . . . . . . . . . . . . . . ",
". . . . . . . . . . . . . . . . . . . . . . . . . . . . . . . . . . . . . . . . . . . . . . . . . . . . . . . . . . . . . . . . ",
". . . . . . . . . . . . . . . . . . . . . . . . . . . . . . . . . . . . . . . . . . . . . . . . . . . . . . . . . . . . . . . . ",
". . . . . . . . . . . . . . . . . . . . . . . . . . . . . . . . . . . . . . . . . . . . . . . . . . . . . . . . . . . . . . . . ",
". . . . . . . . . . . . . . . . . . . . . . . . . . . . . . . . . . . . . . . . . . . . . . . . . . . . . . . . . . . . . . . . ",
". . . . . . . . . . . . . . . . . . . . . . . . . . . . . . . . . . . . . . . . . . . . . . . . . . . . . . . . . . . . . . . . ",
". . . . . . . . . . . . . . . . . . . . . . . . . . . . . . . . . . . . . . . . . . . . . . . . . . . . . . . . . . . . . . . . ",
". . . . . . . . . . . . . . . . . . . . . . . . . . . . . . . . . . . . . . . . . . . . . . . . . . . . . . . . . . . . . . . . ",
". . . . . . . . . . . . . . . . . . . . . . . . . . . . . . . . . . . . . . . . . . . . . . . . . . . . . . . . . . . . . . . . ",
". . . . . . . . . . . . . . . . . . . . . . . . . . . . . . . . . . . . . . . . . . . . . . . . . . . . . . . . . . . . . . . . ",
". . . . . . . . . . . . . . . . . . . . . . . . . . . . . . . . . . . . . . . . . . . . . . . . . . . . . . . . . . . . . . . . ",
". . . . . . . . . . . . . . . . . . . . . . . . . . . . . . . . . . . . . . . . . . . . . . . . . . . . . . . . . . . . . . . . ",
". . . . . . . . . . . . . . . . . . . . . . . . . . . . . . . . . . . . . . . . . . . . . . . . . . . . . . . . . . . . . . . . "};
