/* XPM */
static char * player_xpm[] = {
"32 30 11 1",
" 	c None",
".	c #AE7E41",
"+	c #825B2A",
"@	c #171717",
"#	c #818181",
"$	c #B1B1B1",
"%	c #515151",
"&	c #CE7C9F",
"*	c #F4F4F4",
"=	c #99703B",
"-	c #D3A061",
"................................",
"................................",
"++++++++++++++++++++++++++++++++",
"................................",
"................................",
"................................",
"++++++++++++++++++++++++++++++++",
".............@@@@...............",
"............@#$$#@..............",
"...........@%$$$$%@.............",
"+++++++++++@######@+++++++++++++",
"...........@#%@@%#@.............",
"...........@#@@@@#@.............",
"...........@#&@@&#@.............",
"++++++++++@@#@@@@#@@++++++++++++",
".........@*#%####%#*@...........",
".........@*%#%%%%#%*@...........",
"........@=-=######=-=@..........",
"+++++++++@$@%%@@%%@$@+++++++++++",
"..........@@@@..@@@@............",
"................................",
"................................",
"++++++++++++++++++++++++++++++++",
"................................",
"................................",
"................................",
"++++++++++++++++++++++++++++++++",
"................................",
"................................",
"................................"};
