/* XPM */
static char * exit_xpm[] = {
"32 32 6 1",
" 	c None",
".	c #B3B3B3",
"+	c #404040",
"@	c #000000",
"#	c #FF0000",
"$	c #FF8C00",
"................++++++++++++++++",
"....@@@@@@@@@@@@@@@@@@@@@@@@@@@+",
"....@@@@@@@@@@@@@@@@@@@@@@@@@@@+",
"....@@######################@@++",
"....@@######################@@++",
"....@@####################@@++++",
"....@@####################@@++++",
"..@@####################@@+++@@+",
"..@@####################@@+++@@+",
"..@@##################@@+++++@@+",
"..@@##################@@+++++@@+",
"..@@##########$$$$###@@+++@@@@@+",
"..@@########$$$$$$$$#@@+++@@@@@+",
"..@@###@@###$$$$$$$$#@++@@##@@++",
"..@@###@@##$$$$$$$$$$@++@@##@@++",
"@@###@@..@@$$$$##$$$$@+@@###@@++",
"@@+++@@++@@$$$$##$$$$@.@@###@@..",
"@@+@@++++@@$$$$$$$$$$@@@####@@..",
"@@+@@++++@@#$$$$$$$$#@@@####@@..",
"@@@++++++@@#$$$$$$$$#@@#####@@..",
"@@@++++++@@###$$$$@@@@@#####@@..",
"+++++++@@#########@@@@@#####@@..",
"+++++++@@#######@@@@@#######@@..",
"+++++@@#########@@@@@#######@@..",
"+++++@@#####################@@..",
"+++@@######################@@...",
"+++@@######################@@...",
"+@@########################@@...",
"+@@########################@@...",
"@@@@@@@@@@@@@@@@@@@@@@@@@@@.....",
"@@@@@@@@@@@@@@@@@@@@@@@@@@@.....",
"++++++++++++++++................"};
