/* XPM */
static char * exit_xpm[] = {
"64 64 293 2",
"  	c None",
". 	c #85A643",
"+ 	c #86A743",
"@ 	c #88AA45",
"# 	c #8AAC45",
"$ 	c #89AB45",
"% 	c #82A342",
"& 	c #7B993D",
"* 	c #77953B",
"= 	c #77953C",
"- 	c #78963C",
"; 	c #86A744",
"> 	c #536827",
", 	c #344316",
"' 	c #3B4B1A",
") 	c #3E4F1C",
"! 	c #87A844",
"~ 	c #000000",
"{ 	c #303E14",
"] 	c #76943B",
"^ 	c #8AAC46",
"/ 	c #86A844",
"( 	c #2F3D14",
"_ 	c #390000",
": 	c #700000",
"< 	c #800000",
"[ 	c #7E0000",
"} 	c #7C0000",
"| 	c #101704",
"1 	c #2C3912",
"2 	c #546A28",
"3 	c #7B9A3D",
"4 	c #D10000",
"5 	c #EE0000",
"6 	c #E90000",
"7 	c #E70000",
"8 	c #364517",
"9 	c #6B8634",
"0 	c #7E9E3F",
"a 	c #84A442",
"b 	c #FF0000",
"c 	c #FF0100",
"d 	c #FF0200",
"e 	c #F00000",
"f 	c #810000",
"g 	c #3D4E1B",
"h 	c #7C9A3E",
"i 	c #8DB047",
"j 	c #87A944",
"k 	c #FF0601",
"l 	c #354417",
"m 	c #8BAD46",
"n 	c #FA0000",
"o 	c #EC0000",
"p 	c #ED0000",
"q 	c #D22208",
"r 	c #7C4618",
"s 	c #004E1B",
"t 	c #234417",
"u 	c #A30000",
"v 	c #6B0000",
"w 	c #770000",
"x 	c #798735",
"y 	c #779A3E",
"z 	c #77963C",
"A 	c #78973C",
"B 	c #30501C",
"C 	c #E60000",
"D 	c #8FB148",
"E 	c #8CAF47",
"F 	c #00511D",
"G 	c #E50000",
"H 	c #FE0000",
"I 	c #76963C",
"J 	c #8CAE47",
"K 	c #8BAE46",
"L 	c #536928",
"M 	c #7C9B3E",
"N 	c #303F14",
"O 	c #7D0000",
"P 	c #8AAD46",
"Q 	c #88A944",
"R 	c #E80100",
"S 	c #6D0200",
"T 	c #004D1B",
"U 	c #89AA45",
"V 	c #79973C",
"W 	c #3E501C",
"X 	c #FF0400",
"Y 	c #EE0200",
"Z 	c #7C0601",
"` 	c #224316",
" .	c #88A945",
"..	c #8EB048",
"+.	c #40511D",
"@.	c #FF1200",
"#.	c #FF3900",
"$.	c #FF4400",
"%.	c #FF4200",
"&.	c #FF4100",
"*.	c #FC0100",
"=.	c #F30000",
"-.	c #CE0000",
";.	c #6D0000",
">.	c #001704",
",.	c #123912",
"'.	c #6C8735",
").	c #374618",
"!.	c #FF2E00",
"~.	c #FF7000",
"{.	c #FF8200",
"].	c #FF8000",
"^.	c #FF7E00",
"/.	c #ED0400",
"(.	c #A60100",
"_.	c #5A0000",
":.	c #190000",
"<.	c #294517",
"[.	c #698634",
"}.	c #192208",
"|.	c #FF1B00",
"1.	c #FF3A00",
"2.	c #FF4000",
"3.	c #FF3700",
"4.	c #FF5900",
"5.	c #FF8500",
"6.	c #FF9400",
"7.	c #FF9200",
"8.	c #FF9000",
"9.	c #690000",
"0.	c #404E1B",
"a.	c #3A4B1A",
"b.	c #FF7100",
"c.	c #FF8100",
"d.	c #FF8B00",
"e.	c #FF8E00",
"f.	c #FF8D00",
"g.	c #770001",
"h.	c #354316",
"i.	c #030000",
"j.	c #060000",
"k.	c #334216",
"l.	c #77943B",
"m.	c #E40000",
"n.	c #FF9500",
"o.	c #FF8C00",
"p.	c #7B0000",
"q.	c #001804",
"r.	c #053912",
"s.	c #556B28",
"t.	c #640000",
"u.	c #FF8F00",
"v.	c #790000",
"w.	c #004617",
"x.	c #628634",
"y.	c #809F40",
"z.	c #E62500",
"A.	c #00501D",
"B.	c #759A3E",
"C.	c #8EB248",
"D.	c #364417",
"E.	c #40521D",
"F.	c #8DAF47",
"G.	c #8FB048",
"H.	c #6A0000",
"I.	c #FF0001",
"J.	c #FE8500",
"K.	c #FF9100",
"L.	c #E66D00",
"M.	c #781F00",
"N.	c #00481C",
"O.	c #72963C",
"P.	c #A40000",
"Q.	c #00521D",
"R.	c #EC4400",
"S.	c #FA8200",
"T.	c #FF8900",
"U.	c #FF7D00",
"V.	c #E68000",
"W.	c #783100",
"X.	c #00451C",
"Y.	c #72953C",
"Z.	c #80A040",
"`.	c #A60000",
" +	c #779C3E",
".+	c #A34200",
"++	c #EC8000",
"@+	c #FF5700",
"#+	c #FF3300",
"$+	c #E67D00",
"%+	c #782E00",
"&+	c #00481D",
"*+	c #75993E",
"=+	c #576D29",
"-+	c #FC0000",
";+	c #91B249",
">+	c #6B4100",
",+	c #E57E00",
"'+	c #E67C00",
")+	c #782D00",
"!+	c #004B1E",
"~+	c #779C3F",
"{+	c #7D9C3E",
"]+	c #3A4819",
"^+	c #E80000",
"/+	c #774100",
"(+	c #E67E00",
"_+	c #E67B00",
":+	c #772B00",
"<+	c #004D1F",
"[+	c #7A9F41",
"}+	c #81A040",
"|+	c #44521D",
"1+	c #6B0200",
"2+	c #E70100",
"3+	c #EF0000",
"4+	c #7C4200",
"5+	c #E78000",
"6+	c #793300",
"7+	c #003F1A",
"8+	c #688B37",
"9+	c #6E8C37",
"0+	c #2F4A1A",
"a+	c #820000",
"b+	c #F40000",
"c+	c #A70000",
"d+	c #7C4400",
"e+	c #E78200",
"f+	c #7B4000",
"g+	c #000009",
"h+	c #244619",
"i+	c #294919",
"j+	c #002409",
"k+	c #850100",
"l+	c #F30200",
"m+	c #730000",
"n+	c #7C3900",
"o+	c #E77000",
"p+	c #7D3B01",
"q+	c #870200",
"r+	c #F70601",
"s+	c #F60000",
"t+	c #7F0000",
"u+	c #7C1200",
"v+	c #E72E00",
"w+	c #E72F00",
"x+	c #7D1300",
"y+	c #750000",
"z+	c #D80000",
"A+	c #DA2208",
"B+	c #814618",
"C+	c #000400",
"D+	c #000100",
"E+	c #290000",
"F+	c #5C0000",
"G+	c #3A0000",
"H+	c #804618",
"I+	c #7A8735",
"J+	c #FE8C00",
"K+	c #6E0000",
"L+	c #CF0000",
"M+	c #FA8B00",
"N+	c #EC8100",
"O+	c #E68200",
"P+	c #E97100",
"Q+	c #EE3A00",
"R+	c #214417",
"S+	c #EC8500",
"T+	c #A35900",
"U+	c #6B3700",
"V+	c #774000",
"W+	c #7E3A00",
"X+	c #801B00",
"Y+	c #A30100",
"Z+	c #EC0400",
"`+	c #6D2E00",
" @	c #FA0100",
".@	c #FE4200",
"+@	c #ED3900",
"@@	c #7B1200",
"#@	c #85A543",
"$@	c #E90100",
"%@	c #7E0200",
"&@	c #83A442",
"*@	c #810601",
"=@	c #83A342",
"-@	c #8CAD46",
";@	c #43521D",
">@	c #8CAE46",
",@	c #760000",
"'@	c #40501C",
")@	c #8EB148",
"!@	c #7B9A3E",
". . . . . . . + @ # $ $ $ $ $ $ $ $ $ $ $ $ $ $ $ $ $ $ $ $ $ $ $ $ $ $ $ $ $ $ $ $ $ $ $ $ $ $ $ $ $ $ $ $ $ $ $ $ $ $ # @ + . ",
". . . . . . + % & * = - - - - - - - - - - - - - - - - - - - - - - - - - - - - - - - - - - - - - - - - - - - - - - - - = * & % + ",
". . . . . ; @ & > , ' ) ) ) ) ) ) ) ) ) ) ) ) ) ) ) ) ) ) ) ) ) ) ) ) ) ) ) ) ) ) ) ) ) ) ) ) ) ) ) ) ) ) ) ) ) ) ) ) ' , > & @ ",
". . . . . ! # * , ~ ~ ~ ~ ~ ~ ~ ~ ~ ~ ~ ~ ~ ~ ~ ~ ~ ~ ~ ~ ~ ~ ~ ~ ~ ~ ~ ~ ~ ~ ~ ~ ~ ~ ~ ~ ~ ~ ~ ~ ~ ~ ~ ~ ~ ~ ~ ~ ~ ~ ~ ~ { ] ^ ",
". . . . . / $ = ' ~ ~ ~ ~ ~ ~ ~ ~ ~ ~ ~ ~ ~ ~ ~ ~ ~ ~ ~ ~ ~ ~ ~ ~ ~ ~ ~ ~ ~ ~ ~ ~ ~ ~ ~ ~ ~ ~ ~ ~ ~ ~ ~ ~ ~ ~ ~ ~ ~ ~ ~ ~ ( ] ^ ",
". . . . . / $ - ) ~ ~ _ : < [ } } } } } } } } } } } } } } } } } } } } } } } } } } } } } } } } } } } } } } [ < : _ ~ ~ | 1 2 3 @ ",
". . . . . / $ - ) ~ ~ : 4 5 6 7 7 7 7 7 7 7 7 7 7 7 7 7 7 7 7 7 7 7 7 7 7 7 7 7 7 7 7 7 7 7 7 7 7 7 7 7 7 6 5 4 : ~ ~ 8 9 0 a + ",
". . . . . / $ - ) ~ ~ < 5 b b b b b b b b b b b b b b b b b b b b b b b b b b b b b b b b b b b b b b b b c d e f ~ ~ g h i j . ",
". . . . . / $ - ) ~ ~ [ 6 b b b b b b b b b b b b b b b b b b b b b b b b b b b b b b b b b b b b b b b b d k e [ ~ ~ l - m ! . ",
". . . . . / $ - ) ~ ~ } 7 b b b b b b b b b b b b b b b b b b b b b b b b b b b b b b b b b b b b b b n o 7 p q r s t > & @ ; . ",
". . . . . / $ - ) ~ ~ } 7 b b b b b b b b b b b b b b b b b b b b b b b b b b b b b b b b b b b b b b o u v w r x y z & % + . . ",
". . . . ; @ m A B ~ ~ w C b b b b b b b b b b b b b b b b b b b b b b b b b b b b b b b b b b b b c d 7 v ~ ~ s y D E ^ j + . . ",
". . . + @ m D y F ~ ~ v G b b b b b b b b b b b b b b b b b b b b b b b b b b b b b b b b b H b b d k p w ~ ~ t I J K m ^ @ + . ",
". . + % & z y x r w v u o b b b b b b b b b b b b b b b b b b b b b b b b b b b b b b b b b b n o 7 p q r s t L h + M ] ] & % + ",
". ; @ & > t s r q p 7 o n b b b b b b b b b b b b b b b b b b b b b b b b b b b b b b b b b b o u v w r x y z M + h L N N > & @ ",
". ! # * , ~ ~ O p k d b b H b b b b b b b b b b b b b b b b b b b b b b b b b b b b b b b c d 7 v ~ ~ s y D m ^ P ] , ~ ~ , * # ",
". / $ = ' ~ ~ O 6 d c b b b b b b b b b b b b b b b b b b b b b b b b b b b b b b b H b b d k p w ~ ~ t z m @ Q ^ * ' ~ ~ ' = $ ",
". / $ - ) ~ ~ } 7 b b b b b b b b b b b b b b b b b b b b b b b b b b b b b b b b b b n o 7 p q r s t > & @ ; / $ - ) ~ ~ ) - $ ",
". / $ - ) ~ ~ } 7 b b b b b b b b b b b b b b b b b b b b b b b b b b b b b b b b b b o u v w r x y z & % + . / $ - ) ~ ~ ) - $ ",
". / $ - ) ~ ~ } 7 b b b b b b b b b b b b b b b b b c b b b b b b b b b b c b b b b b R S ~ ~ T y D m U ! / / @ m V W ~ ~ ) - $ ",
". / $ - ) ~ ~ } 7 b b b b b b b b b b b b b b b b c X b b b b b b b b b b X c b H b b Y Z ~ ~ ` I m  .! U $ $ m ..h +.~ ~ ) - $ ",
". / $ - ) ~ ~ } 7 b b b b b b b b b b b b b c b b b b @.#.$.%.&.&.%.$.#.@.b b b b *.=.-.;.>.,.2 3 U ! % & * = V h '.).~ ~ ) - $ ",
". / $ - ) ~ ~ } 7 b b b b b b b b b b b b c X b b b b !.~.{.].^.^.].{.~.!.b b b b /.(._.:.<.[.0 a ! U & > , ' W +.).}.~ ~ ) - $ ",
". / $ - ) ~ ~ } 7 b b b b b b b b b b b b b b |.1.2.3.4.5.6.7.8.8.7.6.5.4.3.2.1.|.G 9.~ ~ 0.h i U  .m z t ~ ~ ~ ~ ~ ~ ~ ~ a.* $ ",
". / $ - ) ~ ~ } 7 b b b H b b b b b b H b b b 1.b.{.^.c.d.e.e.f.f.e.e.d.c.^.{.b.1.C g.~ ~ h.- J ^ m D y s ~ ~ ~ ~ i.j.~ ~ k.l.# ",
". / $ - ) ~ ~ } 7 b b b b n o m.m.o n b c b b 2.{.n.7.8.f.o.o.o.o.o.o.f.8.7.n.{.2.7 p.q.r.s.M + M z y x r [ f : _ ~ ~ | 1 2 3 @ ",
". / $ - ) ~ ~ } 7 b b b b o u t.t.u o c X b b 3.^.7.u.f.o.o.o.o.o.o.o.o.f.u.7.^.3.C v.w.x.y.! h L t s r q e e 4 : ~ ~ 8 9 0 a + ",
"/ @ m A B ~ ~ w C b b c d 7 v ~ ~ v 7 b b @.!.4.c.8.f.o.o.o.f.e.e.f.o.o.o.f.8.c.4.z.w A.B.C.i - D.~ ~ w p k d 5 < ~ ~ E.M F.j . ",
"$ m G.y F ~ ~ H.m.b b d k p w ~ ~ w p I.b #.~.J.d.f.o.o.o.f.8.K.K.8.f.o.o.o.f.d.5.L.M.N.O.F.C.h 0.~ ~ 9.7 d c 6 [ ~ ~ W V P ! . ",
"- A y x r w v P.5 b 5 7 p q r Q.Q.r q p 7 R.S.6.e.o.o.o.f.T.c.U.U.c.T.f.o.o.o.e.6.V.W.X.Y.@ Z.[.<.:._.`.p b b 7 } ~ ~ ) - $ / . ",
") B F r q p 7 5 b 5 P.v w r x  + +x r w v .+++7.e.o.o.f.8.c.@+#+#+@+c.8.f.o.o.e.7.$+%+&+*+y.=+,.>.;.-.=.-+b b 7 } ~ ~ ) - $ / . ",
"~ ~ ~ O p k d c d 7 v ~ ~ s y ;+;+y F ~ ~ >+,+8.f.o.o.e.K.U.#+b b #+U.K.e.o.o.f.8.'+)+!+~+{+]+~ ~ Z Y b b b b 7 } ~ ~ ) - $ / . ",
"~ ~ ~ } ^+d c d k p w ~ ~ t z F.F.A B ~ ~ /+(+8.f.o.o.e.K.U.#+b b #+U.K.e.o.o.f.8._+:+<+[+}+|+~ ~ 1+2+b b b b 7 } ~ ~ ) - $ / . ",
"~ ~ ~ [ 6 b 3+7 p q r s t > & ^ P - ) ~ ~ 4+5+7.e.o.o.f.8.c.@+#+#+@+c.8.f.o.o.e.7.(+6+7+8+9+0+:._.`.p b b b b 7 } ~ ~ ) - $ / . ",
"~ ~ ~ a+5 b+c+v w r x y z & % j # - ) ~ ~ d+e+6.e.o.o.o.f.T.c.U.U.c.T.f.o.o.o.e.6.e+f+g+h+i+j+;.-.=.-+b b b b 7 } ~ ~ ) - $ / . ",
"~ ~ ~ k+l+e m+~ ~ s y D m @ + ; $ - ) ~ ~ n+o+5.d.f.o.o.o.f.8.K.K.8.f.o.o.o.f.d.5.o+p+~ ~ ~ ~ Z Y b b H b b b 7 } ~ ~ ) - $ / . ",
"~ ~ ~ q+r+s+t+~ ~ t z m @ ; . / $ - ) ~ ~ u+v+4.c.8.f.o.o.o.f.e.e.f.o.o.o.f.8.c.4.w+x+~ ~ ~ ~ 1+2+b b b b b b 7 } ~ ~ ) - $ / . ",
"~ ~ ~ y+z+A+B+s t > & @ ; . . / $ - ) ~ ~ } 7 3.^.7.u.f.o.o.o.o.o.o.o.o.f.u.7.^.3.6 [ C+D+E+F+`.p b b b b b b 7 } ~ ~ ) - $ / . ",
"~ ~ ~ G+: H+I+y z & % + . . . / $ - ) ~ ~ } 7 2.{.n.7.8.f.o.o.o.o.o.J+f.8.7.n.{.2.5 < D+~ K+L+=.-+b b b b b b 7 } ~ ~ ) - $ / . ",
"~ ~ ~ ~ ~ s y D m @ + . . . ; @ m A B ~ ~ w C 1.b.{.^.c.d.e.e.f.f.e.e.M+N+,+O+P+Q+4 : ~ ~ f 5 b b H b b b b b 7 } ~ ~ ) - $ / . ",
"~ ~ ~ ~ ~ R+I m @ ; . . . + @ m D y F ~ ~ v G |.1.2.3.4.5.6.7.8.8.7.6.S+T+U+V+W+X+: _ ~ ~ [ 6 b b b b b b b b 7 } ~ ~ ) - $ / . ",
") ) ) ' , > & @ ; . . . + % & z y x r w v Y+Z+b b b b !.~.{.].^.^.].{.o+`+~ ~ ~ ~ C+D+~ ~ w C b b b b b b b b 7 } ~ ~ ) - $ / . ",
"- - - = * & % + . . . ; @ & > t s r q p 7 o  @b b b b @.#.$..@&.&.%.$.+@@@~ ~ ~ ~ D+~ ~ ~ v G b b b b b b b b 7 } ~ ~ ) - $ / . ",
"$ $ $ $ # @ + . . . ; @ m z t ~ ~ w p k d b b H b c X b b b b n o 7 p 4 : C+D+~ ~ _ : p.;.u o b b b b b b b b 7 } ~ ~ ) - $ / . ",
"/ / / / ! ; . . . + @ m D y s ~ ~ v 7 d c b b b b b c b b b b o u ;.p.: _ D+~ ~ ~ : 4 p 7 o n b b b b b b b b 7 } ~ ~ ) - $ / . ",
". . . . . . . . + % & z y x r w v u o b b b b b b b b b b b b m.t.~ ~ ~ ~ ~ ~ ~ ~ p.p b b b b H b b b b b b b 7 } ~ ~ ) - $ / . ",
". . . . . . . ; @ & > t s r q p 7 o n b b b b b b b b b b b b m.t.~ ~ ~ ~ ~ ~ ~ ~ ;.7 b b b b b b b b b b b b 7 } ~ ~ ) - $ / . ",
". . a a #@. ; @ m z t ~ ~ w p k d b b H b b b b b b b b b b b o u v w } } } } w v u o b b b b b b b b b b b b $@%@~ ~ a.* $ / . ",
". a Z.Z.&@/ U m D y s ~ ~ v 7 d c b b b b b b b b b b b b b b n o G C 7 7 7 7 C G o n b b b b b b b b b H b b Y *@~ ~ k.l.# ! . ",
". a Z.Z.. =@& z y x r w v u o b b b b b b b b b b b b b b b H b b b b b b b b b b b b H b b b b b b b b b -+=.-.;.>.,.2 3 @ ; . ",
". . a . @ & > t s r q p 7 o n b b b b b b b b b b b b b b b b b b b b b b b b b b b b b b b b b b b b b b p `._.:.<.[.0 a + . . ",
". . ! U -@z t ~ ~ w p k d b b H b b b b b b b b b b b b b b b b b b b b b b b b b b b b b b b b b b b b b G 9.~ ~ ;@M F.j . . . ",
". ; U >@D y s ~ ~ v 7 d c b b b b b b b b b b b b b b b b b b b b b b b b b b b b b b b b b b b b b b b b C ,@~ ~ '@V P ! . . . ",
"+ % & z y x r w v u o b b b b b b b b b b b b b b b b b b b b b b b b b b b b b b b b b b b b b b b b b b 7 } ~ ~ ) - $ / . . . ",
"@ & > t s r q p 7 o n b b b b b b b b b b b b b b b b b b b b b b b b b b b b b b b b b b b b b b b b b b 7 } ~ ~ ) - $ / . . . ",
"m - l ~ ~ [ e k d b b b b b b b b b b b b b b b b b b b b b b b b b b b b b b b b b b b b b b b b b b c d 6 O ~ ~ ' = $ / . . . ",
")@!@g ~ ~ f e d c b b b b b b b b b b b b b b b b b b b b b b b b b b b b b b b b b b b b b b b b b b d k p O ~ ~ , * # ! . . . ",
"h '.).~ ~ : 4 5 6 7 7 7 7 7 7 7 7 7 7 7 7 7 7 7 7 7 7 7 7 7 7 7 7 7 7 7 7 7 7 7 7 7 7 7 7 7 7 7 7 7 7 6 p q r s t > & @ ; . . . ",
"+.).}.~ ~ _ : < [ } } } } } } } } } } } } } } } } } } } } } } } } } } } } } } } } } } } } } } } } } } O O r x y z & % + . . . . ",
"~ ~ ~ ~ ~ ~ ~ ~ ~ ~ ~ ~ ~ ~ ~ ~ ~ ~ ~ ~ ~ ~ ~ ~ ~ ~ ~ ~ ~ ~ ~ ~ ~ ~ ~ ~ ~ ~ ~ ~ ~ ~ ~ ~ ~ ~ ~ ~ ~ ~ ~ ~ ~ s y D m @ + . . . . . ",
"~ ~ ~ ~ ~ ~ ~ ~ ~ ~ ~ ~ ~ ~ ~ ~ ~ ~ ~ ~ ~ ~ ~ ~ ~ ~ ~ ~ ~ ~ ~ ~ ~ ~ ~ ~ ~ ~ ~ ~ ~ ~ ~ ~ ~ ~ ~ ~ ~ ~ ~ ~ ~ t z m @ ; . . . . . . ",
") ) ) ) ) ) ) ) ) ) ) ) ) ) ) ) ) ) ) ) ) ) ) ) ) ) ) ) ) ) ) ) ) ) ) ) ) ) ) ) ) ) ) ) ) ) ) ) ) ) ) ' , > & @ ; . . . . . . . ",
"- - - - - - - - - - - - - - - - - - - - - - - - - - - - - - - - - - - - - - - - - - - - - - - - - - - = * & % + . . . . . . . . ",
"$ $ $ $ $ $ $ $ $ $ $ $ $ $ $ $ $ $ $ $ $ $ $ $ $ $ $ $ $ $ $ $ $ $ $ $ $ $ $ $ $ $ $ $ $ $ $ $ $ $ $ $ # @ + . . . . . . . . . "};
