/* XPM */
static char * floor_xpm[] = {
"64 64 140 2",
"  	c None",
". 	c #85A643",
"+ 	c #83A543",
"@ 	c #84A543",
"# 	c #84A643",
"$ 	c #81A443",
"% 	c #8AA944",
"& 	c #9BB546",
"* 	c #9CB547",
"= 	c #8CAB44",
"- 	c #86A743",
"; 	c #8CAA44",
"> 	c #89A943",
", 	c #85A542",
"' 	c #84A542",
") 	c #88A843",
"! 	c #91AE45",
"~ 	c #9EB647",
"{ 	c #9CB546",
"] 	c #8AA843",
"^ 	c #81A342",
"/ 	c #98B246",
"( 	c #9EB747",
"_ 	c #9DB647",
": 	c #95B045",
"< 	c #83A341",
"[ 	c #83A241",
"} 	c #95AF45",
"| 	c #9FB747",
"1 	c #A2BA48",
"2 	c #9BB446",
"3 	c #85A341",
"4 	c #7B9D3F",
"5 	c #96B045",
"6 	c #9EB646",
"7 	c #A1B847",
"8 	c #99B245",
"9 	c #83A140",
"0 	c #A0B847",
"a 	c #94AE44",
"b 	c #89A641",
"c 	c #85A441",
"d 	c #8AA943",
"e 	c #8BAA44",
"f 	c #87A743",
"g 	c #84A341",
"h 	c #8BA742",
"i 	c #82A140",
"j 	c #97B146",
"k 	c #88A541",
"l 	c #87A441",
"m 	c #95AF44",
"n 	c #98B346",
"o 	c #83A442",
"p 	c #7D9E40",
"q 	c #81A140",
"r 	c #8FAC44",
"s 	c #90AC45",
"t 	c #87A541",
"u 	c #9AB346",
"v 	c #A1B948",
"w 	c #88A743",
"x 	c #8BA944",
"y 	c #90AC44",
"z 	c #9AB447",
"A 	c #96B145",
"B 	c #8AA742",
"C 	c #95B146",
"D 	c #94B046",
"E 	c #8EAB44",
"F 	c #86A643",
"G 	c #88A844",
"H 	c #89A944",
"I 	c #97B246",
"J 	c #82A443",
"K 	c #7C9D3F",
"L 	c #86A441",
"M 	c #A3BA48",
"N 	c #96B146",
"O 	c #99B346",
"P 	c #8EAA43",
"Q 	c #89A642",
"R 	c #97B145",
"S 	c #82A342",
"T 	c #89A743",
"U 	c #9BB447",
"V 	c #92AE45",
"W 	c #80A040",
"X 	c #8DAB44",
"Y 	c #9DB546",
"Z 	c #7F9F3F",
"` 	c #96B046",
" .	c #95B046",
"..	c #7E9F3F",
"+.	c #80A140",
"@.	c #7E9E3F",
"#.	c #82A241",
"$.	c #82A543",
"%.	c #7F9F40",
"&.	c #82A442",
"*.	c #84A442",
"=.	c #85A743",
"-.	c #9CB446",
";.	c #89A541",
">.	c #7E9F40",
",.	c #83A443",
"'.	c #8FAC45",
").	c #8CA842",
"!.	c #9BB547",
"~.	c #83A240",
"{.	c #7C9E40",
"].	c #99B347",
"^.	c #93AF45",
"/.	c #94AF45",
"(.	c #89A843",
"_.	c #87A843",
":.	c #9AB446",
"<.	c #85A543",
"[.	c #7FA040",
"}.	c #89A844",
"|.	c #90AD45",
"1.	c #80A241",
"2.	c #7B9C3F",
"3.	c #85A340",
"4.	c #85A240",
"5.	c #9BB346",
"6.	c #789A3E",
"7.	c #84A240",
"8.	c #A4BB48",
"9.	c #84A340",
"0.	c #94AF44",
"a.	c #8BA943",
"b.	c #88A642",
"c.	c #7D9F40",
"d.	c #91AD45",
"e.	c #8AA642",
"f.	c #83A342",
"g.	c #7D9E3F",
"h.	c #7C9C3E",
"i.	c #93AE45",
". . . . . . . . . . . . . . . . . . . . . . . . . . + + + @ . # $ % & * = + # . . . . . . . . . . # + = * & % $ # . @ + + + . . ",
". . . . . . . . . . . . . . . . . . . . . . . . . - % = ; > , ' ) ! ~ { ] ^ + . . . . . . . . . . + ^ ] { ~ ! ) ' , > ; = % - . ",
". . . . . . . . . . . . . . . . . . . . . . . # + % / ( _ : < [ } | 1 2 3 4 ^ @ . . . . . . . . @ ^ 4 3 2 1 | } [ < : _ ( / % + ",
". . . . . . . . . . . . . . . . . . . . . . . # + % 5 6 7 8 9 9 8 0 { a b c d e f . . . . . . f e d c b a { 0 8 9 9 8 7 6 5 % + ",
". . . . . . . . . . . . . . . . . . . . . . . . . , g h / : i i : j k l m { ~ n % + # . . # + % n ~ { m l k j : i i : / h g , . ",
". . . . . . . . . . . . . . . . . . . . . . . . - o p q r s [ [ r r [ t u v 6 5 % + # . . # + % 5 6 v u t [ r r [ [ s r q p o - ",
". . . . . . . . . . . . . . . . . . . . . . . . . @ o ' w ) ' ' f x y : z A B g , . . . . . . , g B A z : y x f ' ' ) w ' o @ . ",
". . . . . . . . . . . . . . . . . . . . . . . . . . - . @ @ . . + f ! C D E q p o - . . . . - o p q E D C ! f + . . @ @ . - . . ",
". . . . . . . . . . . . . . . . . . . . . . . . . . . . . . . . # F G % H f ' o @ . . . . . . @ o ' f H % G F # . . . . . . . . ",
". . . . . . . . . . . . . . . . . . . . . . . . . . . . . . # # . . @ @ @ @ . - . . . . . . . . - . @ @ @ @ . . # # . . . . . . ",
". . . . . . . . . . . . . . . . . . . . . . . . . . . . . . + + . . . . . . . . . . . . . . . . . . . . . . . . + + . . . . . . ",
". . . . . . . . . . . . . . . . . . . . . . . . . . . . . - % % F @ . . . . . . . . . . . . . . . . . . . . @ F % % - . . . . . ",
". . . . . . . . . . . . . . . . . . . . . . . . . . . . @ e / I ) J @ . . . . . . . . . . . . . . . . . . @ J ) I / e @ . . . . ",
". . . . . . . . . . . . . . . . . . . . . . . . . . . + ^ d _ | ! ) F # # # # # . . . . . . . . # # # # # F ) ! | _ d ^ + . . . ",
". . . . . . . . . . . . . . . . . . . . . . . . . . @ ^ K L 2 M ( N % + + + + + . . . . . . . . + + + + + % N ( M 2 L K ^ @ . . ",
". . . . . . . . . . . . . . . . . . . . . . . . . f e ] [ l a { 0 2 % @ H ; = % - . . . . . . - % = ; H @ % 2 0 { a l [ ] e f . ",
". . . . . . . . . . . . . . . . . . . . . . . . @ e O * : P L Q R N f f A _ ~ / % + # . . # + % / ~ _ A f f N R Q L P : * O e @ ",
". . . . . . . . . . . . . . . . . . . . . . . @ S T 5 { U V q W E ! % X U 0 Y 5 % + # . . # + % 5 Y 0 U X % ! E W q V U { 5 T S ",
". . . . . . . . . . . . . . . . . . . . . . . ' W Z 9 h `  .f S F e ! N z 5 B g , . . . . . . , g B 5 z N ! e F S f  .` h 9 W ..",
". . . . . . . . . . . . . . . . . . . . . . . ' +.@.4 #.r V H @ $.f !  .D E q p o - . . . . - o p q E D  .! f $.@ H V r #.4 @.%.",
". . . . . . . . . . . . . . . . . . . . . . . . ' o &.' ) G - . # . G H H f ' o @ . . . . . . @ o ' f H H G . # . - G ) ' &.o *.",
". . . . . . . . . . . . . . . . . . . . . . . . . - - . @ @ . . . . @ @ @ @ . - . . . . . . . . - . @ @ @ @ . . . . @ @ . - - =.",
". . . . . . . . . . . . . . . . . . . . . . . . . . . . . . . . . . . . . . . . . . . . . . . . . . . . . . . . . . . . . . . . ",
". . . . . . . . . . . . . . . . . . . . . . . . . . . . . . . . . . . . # # . . . . . . . . . . . . # # . . . . . . . . . . . . ",
". . . . . . . . . . . . . . . . . . . . . . . . . . . . . . . . . . . . + + . . . . . . . . . . . . + + . . . . . . . . . . . . ",
". . . . . . . . . . . . . . . . . . . . . . . . . . . . . . . . . . @ F % % - . . . . . . . . . . - % % F @ . . . . . . . . . . ",
". . . . . . . . . . . . . . . . . . . . . . . . . . . . . . . . . @ J ) I / e @ . . . . . . . . @ e / I ) J @ . . . . . . . . . ",
". . # # . . . . . . . . . . . . . . . . # # . . . . . . . . . . . - ) ! | _ d ^ + . . . . . . + ^ d _ | ! ) - . . . . . . . . . ",
". . + + . . . . . . . . . . . . . . . . + + . . . . . . . . . . @ % N ( M 2 3 4 ^ @ . . . . @ ^ 4 3 2 M ( N % @ . . . . . . . . ",
"@ - % % - . . . . . . . . . . . . . . - % % - # . . . . . . . @ S ] 2 0 -.a ;.3 d e f # # f e d 3 ;.a -.0 2 ] S @ . . . . . . . ",
"J H I / e @ . . . . . . . . . . . . @ e / I H J @ . . . . . . o >.3 N j k l a 2 _ n % ,.,.% n _ 2 a l k j N 3 >.o . . . . . . . ",
"f '.| _ d ^ + . . . . . . . . . . + ^ d _ | '.- . . . . . . . o %.[ r r [ k -.M 6 5 % + + % 5 6 M -.k [ r r [ %.o . . . . . . . ",
"V I v -.c 4 ^ @ . . . . . . . . @ ^ 4 c -.v / '.) @ . . . . . . o ' f % r A 0 Y ).[ ' . . ' [ ).Y 0 A r % f ' o . . . . . . . . ",
"I / u m b c d e f . . . . . . f e d c b m u O D H @ . . . . . . - . + f ! I !.: ~.{.o - - o {.~.: !.I ! f + . - . . . . . . . . ",
"].^.L l m { ~ n e @ . . . . @ e n ~ { m l t /.C H @ . . . . . . . . # . G % e (.' o @ . . @ o ' (.e % G . # . . . . . . . . . . ",
"D r [ t u v 6 5 w S @ . . @ S w 5 6 v u t [ y ! G @ . . . . . . . . . . @ + + + . - . . . . - . + + + @ . . . . . . . . . . . . ",
"G % y : z j h 9 Z W ' - - ' W Z 9 h j z : y x f F . . . . . . . . . . . . # # # . . . . . . . . # # # . . . . . . . . . . . . . ",
"J _.! C D E q 4 @.+.' - - ' +.@.4 q E D C ! f + # . . . . . . . . . . . . . . . . . . . . . . . . . . . . . . . . . . . . . . . ",
"# F G % H f ' &.o ' . . . . ' o &.' f H % G F # . . . . . . . . . . . . . . . . . . . . . . . . . . . . . . . . . . . . . . . . ",
". . @ @ @ @ . - - . . . . . . - - . @ @ @ @ . . . . . . . . . . . . . . . . . . . . . . . . . . . . . . . . . . . . . . . . . . ",
". . . . . . . . . . . . . . . . . . . . . . . . . . . . . . . . . . . . . . . . . . . . . . . . . . . . . . . . . . . . . . . . ",
". . . . . . . . . . . . . . . . . . . . . . . . . . . . . . . . . . . . . . . . . . . . . . . . . . . . . . . . . . . . . . . . ",
". . . . . . . . . . . . . . . . . . . . . . . . . . . . . . . . . . . . . . . . . . . . . . . . . . . . . . . . . . . . . . . . ",
"# # . . . . . . . . . . . . . . . . . . . . . . . . . . . . . . . . . . . . . . . . . . . . . . . . . . . . . . . . . . . . . . ",
"+ + . . . . . . . . . . . . . . . . . . . . . . . . . . . . . . . . . . . . . . . . . . . . . . . . . . . . . . . . . . . . . . ",
"e % - # # # # # . . . . . . . . . . . . . . . . . . . . . . # # . . . . . . . . . . . . . . . . . . . . . . . . . . . . . . # # ",
"* j % + + + + + . . . . . . . . . . . . . . . . . . . . - . + + . . . . . . . . . . . . . . . . . . . . . . . . . . . . - . + + ",
"7 :.% @ H ; = % - . . . . . . . . . . . . . . . . . . . o <.% % F @ . . . # # # . . . . . . . . . . . . . . . . . . . . o , > e ",
"U  .f f A _ ~ / % + # . . . . . . . . . . . . . . . - ' [.L R I }.J . . @ + + + . . . . . . . . . . . . . . . . . . - ' [.c : * ",
"^.|.H X U 0 Y 5 % + # . . . . . . . # # . . . . . . ' 1.2.3.-.0 ! w ' , > ; = % - . . . . . . . . . . . . . . . . . ' 1.2.4.5.M ",
") e ! N z 5 B g , . . . . . . . . . + + . . . . - o [.2.6.7.2 M | } [ < : _ ( / % + # . . . . . . . . . . . . . - o [.2.6.7.2 8.",
"J f !  .D E q p o - . . . . . . # - % % - . . . . . L 3.9.B 0.-.0 8 9 9 8 7 6 5 % + # . . . . . . . . . . . . . . . L 3.9.B m u ",
"# F G H H f ' o @ . . . . . . @ J H I / e @ . # + % R Y -.m l k j : i i : / h g , . . . . . . . . . . . . . . # + % R Y -.m b i ",
". . @ @ @ @ . - . . . . . . . . - '.| _ a.^ @ . + % R ~ v u t [ r r [ [ s r q p o - . . . . . . . . . . . . . # + % R ~ v :.b.Z ",
". . . . . . . . . . . . . . @ ) './ v { t c.o =.. , g B N z : y x f ' ' ) w ' o @ . . . . . . . . . . . . . . . . , g B N ]./.d.",
". . . . # # . . . . . . . . @ H D O 2 a g >.o - - o p q E D C ! f + . . @ @ . - . . . . . . . . . . . . . . . . - o p q E D D D ",
". . . . + + . . . . . . . . @ H C : e.~.f.' . . . @ o ' f H % G F # . . . . . . . . . . . . . . . . . . . . . . . @ o ' f H H H ",
". . @ F % % - . . . . . . . @ G V r q p o - . . . . - . @ @ @ @ . . . . . . . . . . . . . . . . . . . . . . . . . . - . @ @ @ @ ",
". @ J ) I / e @ . . . . . . . - G ) ' o . . . . . . . . . . . . . . . . . . . . . . . . . . . . . . . . . . . . . . . . . . . . ",
". - ) ! | _ d ^ + . . . . . . . @ @ . - . . . . . . . . . . . . . . . . . . . . . . . . . . . . . . . . . . . . . . . . . . . . ",
"# % N ( M 2 3 4 ^ @ . . . . . . . . . . . . . . . . . . . . . . . . . . . . . . . . . . . . . . . . . . . . . . . . . . . . . . ",
"^ d :.0 { m b 3 ] % - . . . . . . . . . . . . . . . . . . . . . . . . . . . . . . . . . . . . . . . . . . . . . . . . . . . . . ",
"g.L : N Q k m 2 { N % + # . . . . . . . . . . . . . . . . . . . . . . . . . . . . . . . . . . . . . . . . . . . . . . . . . . . ",
"h.~.i.d.%.i u 8.M & e + # . . . . . . . . . . . . . . . . . . . . . . . . . . . . . . . . . . . . . . . . . . . . . . . . . . . "};
