/* XPM */
static char * floor_xpm[] = {
"32 32 3 1",
" 	c None",
".	c #B3B3B3",
"+	c #404040",
"................++++++++++++++++",
"................++++++++++++++++",
"................++++++++++++++++",
"................++++++++++++++++",
"................++++++++++++++++",
"................++++++++++++++++",
"................++++++++++++++++",
"................++++++++++++++++",
"................++++++++++++++++",
"................++++++++++++++++",
"................++++++++++++++++",
"................++++++++++++++++",
"................++++++++++++++++",
"................++++++++++++++++",
"................++++++++++++++++",
"................++++++++++++++++",
"++++++++++++++++................",
"++++++++++++++++................",
"++++++++++++++++................",
"++++++++++++++++................",
"++++++++++++++++................",
"++++++++++++++++................",
"++++++++++++++++................",
"++++++++++++++++................",
"++++++++++++++++................",
"++++++++++++++++................",
"++++++++++++++++................",
"++++++++++++++++................",
"++++++++++++++++................",
"++++++++++++++++................",
"++++++++++++++++................",
"++++++++++++++++................"};
