/* XPM */
static char * player_xpm[] = {
"32 32 10 1",
" 	c None",
".	c #B3B3B3",
"+	c #EBC82B",
"@	c #404040",
"#	c #D3BABA",
"$	c #000000",
"%	c #F7F7F7",
"&	c #0000BF",
"*	c #D79A2E",
"=	c #D11919",
"...........+++++++++++++@@@@@@@@",
".........+++++++++++++++@@@@@@@@",
"......+++++++++++++++@@@@@@@@@@@",
"......++++++++++++++++@@@@@@@@@@",
"........++++#####+++++@@@@@@@@@@",
"........+++##$%#$%++++@@@@@@@@@@",
".......++++##$%#$%#@++@@@@@@@@@@",
"......+++++########@@@@@@@@@@@@@",
"...........$$#####@@@@@@@@@@@@@@",
"........$$$##$$$$$#$@@@@@@@@@@@@",
".......$############$@@@@@@@@@@@",
".......$############$@@@@@@@@@@@",
"......$###$#########$@@@@@@@@@@@",
"......$###$#######$$$@@@@@@@@@@@",
"......$##$.$######$$$@@@@@@@@@@@",
"@@@@@$###$@$$$$$$$$##$@@@@@@@@@@",
"@@@@@$##$@@$&&&&&&$##$..........",
"@@@@@$##$@@$&&&&&&$##$..........",
"@@@@@$###$$$$$$$$$$$#$..........",
"@@@@$####$$****$***$#$..........",
"@@@@$##$#$$****$***$#$..........",
"@@@@$##$$$$****$****$...........",
"@@@@@$$@$$*****$****$...........",
"@@@@@@@$$******$****$...........",
"@@@@@@@$******$$$$$$............",
"@@@@@@@$*****$@$&&=$............",
"@@@@@@$$$$$$$@@$&&=$............",
"@@@@@@$&=&&$@@@$&++=$...........",
"@@@@@$++=+$@@@@@$+&&=$..........",
"@@@@@$&=&&$@@@@@@$$$$$..........",
"@@@@@$$$$$$@@@@@@...............",
"@@@@@@@@@@@@@@@@@..............."};
