/* XPM */
static char *player2[] = {
/* columns rows colors chars-per-pixel */
"64 64 198 2 ",
"   c #010100",
".  c #090402",
"X  c #0A0803",
"o  c #090807",
"O  c #00000A",
"+  c #151C0A",
"@  c #181F0A",
"#  c #00001E",
"$  c #240001",
"%  c #25010E",
"&  c #211707",
"*  c #241A06",
"=  c #261B08",
"-  c #17200A",
";  c #1C240D",
":  c #1E280F",
">  c #1D2610",
",  c #1D2810",
"<  c #2F220A",
"1  c #21290D",
"2  c #342507",
"3  c #32240A",
"4  c #3D200E",
"5  c #212910",
"6  c #272118",
"7  c #2F3C16",
"8  c #3A3814",
"9  c #000023",
"0  c #0C0025",
"q  c #0B0926",
"w  c #00002C",
"e  c #13192F",
"r  c #000031",
"t  c #141A30",
"y  c #231E20",
"u  c #252020",
"i  c #2B2526",
"p  c #2D262A",
"a  c #2E2929",
"s  c #322B2C",
"d  c #3A322C",
"f  c #3B3D2C",
"g  c #2E2934",
"h  c #373738",
"j  c #560B0D",
"k  c #7C0E0B",
"l  c #593E11",
"z  c #7A0B2E",
"x  c #7B0C31",
"c  c #4C3C2B",
"v  c #35451B",
"b  c #38471B",
"n  c #3F402E",
"m  c #434210",
"M  c #5D4214",
"N  c #795719",
"B  c #7B591B",
"V  c #44462F",
"C  c #4D5D29",
"Z  c #54662C",
"A  c #556D2A",
"S  c #586A2B",
"D  c #586A31",
"F  c #637D31",
"G  c #00006C",
"H  c #010272",
"J  c #280474",
"K  c #302A7A",
"L  c #580E7B",
"P  c #65337C",
"I  c #534D46",
"U  c #514748",
"Y  c #554B4C",
"T  c #594E4F",
"R  c #5D5756",
"E  c #796B6A",
"W  c #7E716D",
"Q  c #A40F0E",
"!  c #B73613",
"~  c #9D1A23",
"^  c #890C34",
"/  c #B62E38",
"(  c #D33723",
")  c #805F1D",
"_  c #8C741A",
"`  c #BB443B",
"'  c #866125",
"]  c #89753C",
"[  c #A37522",
"{  c #A77822",
"}  c #AE7C24",
"|  c #B27F26",
" . c #DB7E2A",
".. c #A61143",
"X. c #A73449",
"o. c #897848",
"O. c #B67B4B",
"+. c #82736E",
"@. c #837472",
"#. c #C57F40",
"$. c #668033",
"%. c #6A8535",
"&. c #6D8937",
"*. c #6D863A",
"=. c #6E8A38",
"-. c #708B37",
";. c #7E9D3F",
":. c #7E9E40",
">. c #7FA243",
",. c #859139",
"<. c #B48126",
"1. c #88A73F",
"2. c #96AC3E",
"3. c #9CAE3E",
"4. c #BAA12B",
"5. c #A7B33C",
"6. c #B7B737",
"7. c #DC801D",
"8. c #CE942C",
"9. c #D79A2E",
"0. c #DB9D2F",
"q. c #DF9F30",
"w. c #DFA030",
"e. c #C0BA35",
"r. c #D1BF31",
"t. c #E1A130",
"y. c #D9C22F",
"u. c #D4C131",
"i. c #D8C230",
"p. c #ECC826",
"a. c #E6C62C",
"s. c #ECC82A",
"d. c #F1CA2A",
"f. c #EBC932",
"g. c #85A643",
"h. c #87A944",
"j. c #89AB45",
"k. c #8AA946",
"l. c #93AB4F",
"z. c #8EB148",
"x. c #AFA94C",
"c. c #A29E65",
"v. c #96A864",
"b. c #C9A846",
"n. c #C7B547",
"m. c #E7C646",
"M. c #E6C54E",
"N. c #ECCD50",
"B. c #DCC176",
"V. c #E5C977",
"C. c #00008E",
"Z. c #000093",
"A. c #000099",
"S. c #0B0C9C",
"D. c #36069C",
"F. c #0B0BBF",
"G. c #310FA2",
"H. c #2925A8",
"J. c #3526A3",
"K. c #653381",
"L. c #6A5D84",
"P. c #0000C6",
"I. c #0000CA",
"U. c #9D8A8B",
"Y. c #9C9380",
"T. c #A18E8E",
"R. c #A3928B",
"E. c #B19D84",
"W. c #A28E90",
"Q. c #A49191",
"!. c #AA9696",
"~. c #AB9699",
"^. c #AE9A9A",
"/. c #B19C9D",
"(. c #B1B286",
"). c #BEB3A1",
"_. c #BDBBBC",
"`. c #C9B880",
"'. c #D9BD99",
"]. c #C6AEAE",
"[. c #C4B8A4",
"{. c #CFB6AC",
"}. c #CAB2B2",
"|. c #CDBABB",
" X c #D1BAB5",
".X c #D5BCBC",
"XX c #D8BFBE",
"oX c #DCC09B",
"OX c #EEDCAC",
"+X c #D6BDC2",
"@X c #D9BFC2",
"#X c #DCC2C2",
"$X c #DDC7CC",
"%X c #E0C7C8",
"&X c #E5D1D1",
"*X c #F9F2D9",
"=X c #EEE3E5",
"-X c #F8F2F0",
/* pixels */
"g.g.g.g.g.g.g.g.g.h.g.g.g.g.g.g.g.g.g.g.:.3.r.d.d.s.s.s.s.s.s.s.s.s.s.a.s.a.f.f.s.s.a.s.s.s.s.u.3.>.g.g.g.g.g.g.g.g.g.g.g.g.g.g.",
"g.g.g.g.g.g.g.g.g.g.g.g.g.g.g.g.g.k.2.3.z.6.r.s.s.s.s.a.s.a.s.s.s.s.s.s.s.s.s.s.s.s.s.s.s.s.d.u.5.g.g.g.g.g.g.g.g.g.g.g.g.g.g.g.",
"g.g.g.g.g.g.g.g.g.g.g.g.g.g.g.>.g.3.6.u.r.r.a.s.s.s.s.s.s.s.s.s.s.s.s.s.s.s.s.s.s.s.s.s.s.d.s.u.z.g.g.g.g.g.g.g.g.g.g.g.g.g.g.g.",
"g.g.g.g.g.g.g.g.g.g.g.k.2.3.3.3.z.6.y.s.d.d.d.s.s.s.s.s.s.s.s.s.s.s.a.s.s.a.s.s.s.a.u.u.u.u.u.e.3.g.>.g.g.g.g.g.g.g.g.g.g.g.g.g.",
"g.g.g.g.g.g.g.g.g.g.g.2.e.u.r.r.r.y.a.s.s.s.s.s.s.s.s.s.s.s.s.a.s.s.s.s.s.s.s.s.p.i.6.3.3.3.3.2.k.g.g.g.g.g.g.g.g.g.g.g.g.h.g.g.",
"g.g.g.g.g.g.g.g.g.g.g.3.u.d.d.d.s.s.s.s.s.s.a.s.s.a.s.s.s.s.s.s.s.s.s.s.s.s.s.s.s.i.5.2.j.>.h.>.1.h.g.g.g.g.g.g.g.g.g.g.g.g.g.g.",
"g.g.g.g.g.g.g.g.g.g.g.3.y.d.d.d.s.s.s.s.s.s.s.s.s.p.p.s.p.p.p.p.s.a.s.s.s.s.s.s.s.a.y.6.2.g.>.h.g.g.g.g.g.g.g.g.g.g.g.g.g.g.g.g.",
"g.g.g.g.g.g.g.g.g.g.g.2.e.r.r.y.a.s.s.s.s.s.p.f.m.M.M.M.M.M.M.M.M.m.a.a.s.s.s.s.s.d.d.u.3.g.g.g.g.g.g.g.g.g.g.g.g.g.g.g.g.g.g.g.",
"g.g.g.g.g.g.g.g.g.g.g.h.2.2.3.6.y.s.s.s.s.s.p.m.`.'.oXoX'.'.'.'.oX'.f.d.d.s.s.s.s.s.d.u.3.h.g.g.g.g.g.g.g.g.g.g.g.g.g.g.g.g.g.g.",
"g.g.g.g.g.g.g.g.g.g.g.g.g.g.g.2.u.s.s.s.s.f.f.V.oX_.~.^.|.$X#X}.~.E.B.N.f.d.s.s.s.s.s.u.3.>.g.g.g.g.g.g.g.g.g.g.g.g.g.g.g.g.1.g.",
"g.g.g.g.g.g.g.g.g.g.g.g.g.g.>.2.u.s.s.s.s.m.B.{.XX~.Y R _.=X$X!.I R [.OXN.d.p.p.s.s.s.u.3.h.>.h.g.g.g.g.g.g.g.g.g.g.g.g.g.g.g.g.",
"g.g.g.1.g.g.g.g.g.g.g.g.g.k.k.6.y.s.s.s.p.M.'.+X@XT.i h _.-X&XU.a n _.*XV.m.u.y.a.s.d.u.3.>.h.1.g.g.g.g.g.g.g.g.g.g.g.g.g.g.g.g.",
"g.g.g.g.g.g.g.g.g.g.g.g.g.2.6.y.f.s.s.s.s.M.'.+X@XU.i h _.-X&XU.a h _.-XOX`.x.5.i.d.d.u.3.1.>.h.g.g.g.g.g.g.g.g.g.g.g.g.g.g.g.g.",
"g.g.g.g.g.g.g.g.g.g.g.k.2.6.y.d.d.s.s.s.s.M.oX@X@X!.T R _.=X$X!.I R _.=X$X).v.2.e.u.u.e.3.>.h.>.g.g.g.g.g.g.g.g.g.g.g.g.g.g.g.g.",
"g.g.g.g.g.g.g.g.g.g.g.2.e.a.s.d.d.s.s.s.d.M.oX@X@X}.!.^.|.#XXX].!.^. X$X+X).v.h.2.3.3.2.j.1.h.h.g.g.g.g.g.g.g.g.g.g.g.g.g.g.g.g.",
"g.g.g.g.g.g.g.g.g.g.g.2.e.r.r.r.u.u.u.y.y.b.c.U.U.^.}.@XXX.X.XXXXX#XXX X].(.l.g.>.j.>.j.j.>.>.j.g.g.g.g.g.g.g.g.g.g.g.g.g.g.g.g.",
"g.g.g.g.g.g.g.g.g.g.g.k.3.3.3.3.5.3.z.5.5.,.V i y T ^.@X@X@XXXXX#X#X#X[.c.l.k.g.g.g.g.g.g.g.g.g.g.g.g.g.g.g.g.g.g.g.g.g.g.g.g.g.",
"g.g.g.g.g.g.g.g.g.g.g.g.g.g.g.;.%.F F F F Z f a i U @.W.T.U.U.U.U.U.U.Y.v.l.*.%.:.g.g.g.g.g.g.g.g.g.g.g.g.g.g.g.g.g.g.g.g.g.g.g.",
"g.g.g.g.g.g.g.g.g.g.g.g.g.h.j.&.v - - - - f W T.Q.@.c i p p a a p p i I Q.Y.V 7 %.j.j.g.g.g.g.g.g.g.g.g.g.g.g.g.g.g.g.g.g.g.g.g.",
"g.g.g.g.g.g.g.g.g.g.g.g.g.;.&.D f p p p p T ^.#X@X^.T i i p a a p i i T /./.T f Z =.:.j.g.g.g.g.g.g.g.g.g.g.g.g.g.g.g.g.g.g.g.g.",
"g.g.g.g.g.g.g.g.g.g.g.g.k.%.v f W Q.U.U.U.!.}.XX+X].~.U.U.U.U.U.U.U.U.!.].}./.W f v %.j.g.g.g.g.g.g.g.g.g.g.g.g.g.g.g.g.g.g.g.g.",
"g.g.g.g.g.g.g.g.g.g.g.h.j.F ; a W.#X#XXX#XXX.X.X X.XXX@XXXXXXXXX#X|.#X.X.XXX@XT.s ; F j.h.g.g.g.1.k.g.g.g.g.g.g.g.g.g.g.g.g.g.g.",
"g.g.g.g.g.g.g.g.g.g.g.g.j.F ; s U.#XXXXXXXXX.X.X X.X.X.X.X.X.X.XXX.X.X.X.X.X@XW.p ; F g.h.g.g.g.g.g.g.g.g.g.g.g.g.g.g.g.g.g.g.g.",
"g.g.g.g.g.g.g.g.g.g.g.g.&.D f T ~.#XXX].!.!.]..X.X.X.X X.X.X.X.X.X.X.X|.XXXX@XT.s ; F h.h.g.g.g.g.g.g.g.g.g.g.g.g.g.g.g.g.g.g.g.",
"g.g.g.g.g.g.g.g.g.h.h.%.v f W /.}.XXXX!.Y Y !.XX.X.X.X.X.X X X X|..X.X.XXXXX#XR.s ; F k.g.g.g.g.g.g.g.g.g.g.g.g.g.g.g.g.g.g.g.g.",
"g.g.g.g.g.g.g.g.g.h.h.F ; s T.@XXX.X#XU.a a U.#XXX X.X X.X.X.X.X.X X.X].~.T.W.E y > F g.h.g.g.g.g.g.g.g.g.g.g.g.g.g.1.g.g.g.g.g.",
"g.g.g.g.g.g.g.g.1.k.h.F ; s T.#XXXXX#XU.s a T.#X.X.X.X.X.X.X.X.X.X.XXX~.T p s u o 5 F j.h.g.g.g.g.g.g.g.g.g.g.g.g.g.g.g.g.g.g.g.",
"g.g.g.g.g.g.g.g.g.k.k.F ; p U.XXXX}.^.W f f W /.}.XX.X.X.X.X.X.X.XXX#XT.d         5 $.j.h.g.g.g.g.g.g.g.g.g.g.g.g.g.g.g.g.g.g.g.",
"g.g.g.g.g.g.g.g.g.h.j.$.; s U.#XXX~.T f Z D f T ^.#XXXXXXXXX.X.X@X#X#XQ.s         5 %.j.k.g.g.g.g.g.g.g.g.g.g.g.g.g.g.g.g.g.g.g.",
"g.g.g.g.g.g.g.1.g.;.-.Z f T ~.#X#XU.s : $.%.: u E R.R.R.R.T.R.R.T.R.R.E u o u s s n D =.,.g.g.g.g.g.g.g.g.g.g.g.g.g.g.g.g.g.g.g.",
"g.g.g.g.g.g.g.h.h.%.v f W /.].XX#XQ.s ; $.%.5 o y s s s a s s s s s s 6 o u E Q.Q.+.f v &.k.k.1.g.g.g.g.g.g.g.g.g.g.g.g.g.g.g.g.",
"g.g.g.g.g.g.g.k.k.F - s T.#XXX}./.W f b =.$.1 O # w 9 w 9 w 9 w w 9 w # O s Q.%X#XT.s ; F j.k.g.g.g.g.g.g.g.g.g.g.g.g.g.g.g.g.g.",
"g.g.g.g.g.g.g.h.k.F 1 p T.%XXX!.Y f D -.g.F 1 9 G A.Z.C.C.C.C.C.C.C.Z.G # d R.#X%XT.p ; F k.j.g.g.g.g.g.g.g.g.g.h.g.g.g.g.g.g.g.",
"g.g.g.g.g.g.g.h.k.F @ s T.@X@XT.s ; %.z.j.%.1 r Z.P.P.P.P.P.P.P.P.P.P.A.w s R.#X#XU.s ; F g.g.g.g.g.g.g.g.g.g.g.g.g.g.g.g.g.g.g.",
"g.g.g.g.g.g.g.h.k.F ; a U.XX#XT.a ; F z.z.F 1 w A.P.P.P.P.P.P.P.P.P.P.Z.w s R.%X#XT.s ; F j.g.g.g.g.g.g.g.g.g.g.g.g.g.g.g.g.g.g.",
"g.g.g.g.g.g.g.k.k.F ; a T.XX@X~.T f S $.F Z ; 9 G A.Z.Z.C.Z.Z.Z.Z.Z.A.G # 6 E /.}.T.s ; F g.j.g.g.g.g.g.g.g.g.g.g.g.g.g.g.h.g.g.",
"g.g.g.g.g.g.g.j.j.F ; s T.XXXX]./.+.V ; 1 @ X O 9 w w w w w w w w w w 9 O o y R /.W.s ; F j.h.g.g.g.g.g.g.g.g.g.g.g.g.g.g.g.g.g.",
"g.g.g.g.g.g.g.;.&.Z f T ~.XXXXXX#XT.s     X = 2 2 2 2 2 2 = X X = 2 2 2 2 = . d Q.W.g ; F j.h.g.g.g.g.g.g.g.g.g.g.g.g.g.g.g.g.g.",
"g.g.g.g.g.g.j.%.v f W /.].XXXX@X#XQ.s     = B { { { { { { N = = N { { { { N & s W.W.s ; F g.h.g.g.g.g.g.g.g.g.g.g.g.g.g.g.g.g.g.",
"g.g.g.g.g.k.j.F - s T.#XXX].!./.}.Q.s     3 { w.w.0.0.0.w.[ < < { t.0.t.t.[ 3 s Q.Q.s ; F h.h.g.g.g.g.g.g.g.g.g.g.g.g.g.g.g.g.g.",
"g.g.g.g.g.h.k.F ; s T.#X@X~.Y T /.!.d     3 { t.0.0.0.0.w.[ 3 < { 0.0.w.q.[ < s Q.~.s ; F j.g.g.g.g.g.g.g.g.g.g.g.g.g.g.g.g.g.g.",
"g.g.g.g.g.k.h.F ; p T.#X%XT.a u E +.i     3 [ 0.0.9.9.0.0.[ < < [ 9.0.0.0.} l c @.@.f v %.h.h.g.g.g.g.g.g.g.g.g.g.g.g.g.g.g.g.g.",
"g.g.g.g.g.h.h.F ; s T.%X%XT.s o u u o   O 3 [ 0.0.9.9.0.0.[ = < [ 0.0.9.9.8.| ' c f D =.:.g.g.g.g.g.g.g.g.g.g.g.g.g.g.g.g.g.g.g.",
"g.g.g.g.g.1.h.%.v f W W.T.+.V @ X     X * M | 0.0.9.9.0.0.[ < < [ 0.0.9.9.0.q.{ 3 > $.j.j.g.g.g.g.g.g.g.g.g.g.g.g.g.g.g.g.g.g.g.",
"g.g.g.g.g.g.h.;.=.D f p a n D C ;     = B <.8.9.9.9.9.0.0.[ < < [ 9.0.9.9.0.q.[ 3 > F k.j.g.g.g.g.g.g.g.g.g.g.g.g.g.g.g.g.g.g.g.",
"g.g.g.g.g.g.g.h.j.&.v - - v A Z @ . & M <.w.0.9.9.9.9.0.0.[ < < [ q.0.0.0.0.q.[ < > F g.h.g.g.g.g.g.g.g.g.g.g.g.1.g.g.g.g.g.g.g.",
"g.g.g.g.g.g.g.h.h.;.&.F F S 7 @ O = B <.8.0.0.9.9.9.9.0.t.[ < < [ t.q.0.0.w.t.{ < > F k.h.g.g.g.g.g.g.g.g.g.g.g.g.g.g.g.g.g.g.g.",
"g.g.g.g.g.g.g.g.g.g.h.j.j.$., . * M <.w.0.9.9.9.9.9.0.8.| N * * N { { [ [ [ { ) 8 b *.g.h.g.g.g.g.g.g.g.g.g.g.g.g.g.g.g.g.g.g.g.",
"g.g.g.g.g.g.g.g.g.g.h.j.j.F , * N | 8.9.9.9.9.9.9.q.q.| l & . X = 2 2 3 < 3 3 8 S =.;.h.g.g.g.g.g.g.g.g.g.g.g.g.g.g.g.g.g.g.g.g.",
"g.g.g.g.g.g.g.g.g.g.g.h.j.$.> 3 { t.w.q.9.q.q.9.9.8.| ) 8 + . O 9 r w 0 % $ . 5 $.j.h.g.g.g.g.g.g.g.g.g.g.g.g.g.g.g.g.g.g.g.g.g.",
"g.g.g.g.g.g.g.g.g.1.g.k.j.F > 3 { t.t.0.q.0.0.q.w.| l 8 S C ; # G A.A.J x k $ , $.j.j.g.g.g.g.g.g.g.g.g.g.g.g.g.g.k.1.g.g.g.g.g.",
"g.g.g.g.g.g.g.g.g.h.g.;.=.C + & N { { { [ [ { [ { B 8 v -.%.1 w Z.P.I.D...Q $ > $.j.h.g.g.g.g.g.g.g.g.g.g.g.g.g.g.g.g.g.g.g.g.g.",
"g.g.g.g.g.g.g.g.1.k.1.&.b + . o * 3 3 2 3 3 3 3 < 8 Z &.g.F 1 w Z.P.I.D...Q $ + $.h.h.g.g.g.g.g.g.g.g.g.g.g.g.g.g.g.g.g.g.g.g.g.",
"g.g.g.g.g.g.g.g.h.j.j.$.5 O 9 0 % % 0 r r 9 O . + b -.j.j.F 1 w Z.F.H.P ` ! j l Z &.>.h.h.g.g.g.g.g.g.g.g.g.g.g.g.g.g.g.g.g.g.g.",
"g.g.g.g.g.g.g.g.g.h.j.$.: 9 H J z z J Z.A.H 9 ; C %.g.j.j.F 1 w A.J.@.b.w.7.! k 3 v &.h.h.g.g.g.g.g.g.g.g.g.g.g.g.g.g.g.g.g.g.g.",
"g.g.g.g.g.g.g.g.h.;.-.S m 8 J.K./ / P H.S.H t b %.j.k.g.k.&.b e H K x.s.b.O.X.^ j 4 Z =.:.g.g.g.g.g.g.g.g.g.g.g.g.g.g.g.g.g.g.g.",
"g.g.g.g.g.g.g.j.h.%.v m _ 4.x.#.( ( 8.o.g t C =.g.h.g.g.g.>.=.C e d 8.n.L.J.G.L ^ ~ = v &.h.h.g.g.g.g.g.g.g.g.g.g.g.g.g.g.g.g.g.",
"g.g.g.g.g.g.g.g.h.F ; 6 ] b.t. ./ X.O.o.6 > $.j.g.g.g.g.g.h.j.&.b m _ ] K Z.A.J ^ k $ ; F j.h.g.g.g.g.g.g.g.g.g.g.g.g.g.g.g.g.g.",
"g.g.g.g.g.g.g.h.h.F : q K K.` / L G.J.K 0 ; $.j.h.g.g.g.g.h.h.:.&.S m = q w r 0 % $ . > $.h.h.g.g.g.g.g.g.g.g.g.g.g.g.g.g.g.g.g.",
"g.g.g.g.g.g.g.j.h.$.: 9 H J z ^ J A.A.G 9 : F j.h.g.g.g.g.g.g.h.k.-.v - ; 1 1 : > > > b &.g.h.g.g.g.g.g.g.g.g.g.g.g.g.g.g.g.g.g.",
"g.g.g.g.g.g.g.g.j.F 1 O 9 0 % % 0 w r 9 O 5 F h.h.g.g.g.g.g.g.g.h.;.%.F F F $.F F F F =.,.g.g.g.g.g.g.g.g.g.g.g.g.g.g.g.g.g.g.g.",
"g.g.g.g.g.g.g.j.j.=.b : : 1 : : 1 1 1 1 5 b &.j.g.g.g.g.g.g.g.g.g.g.h.h.k.j.1.k.h.j.h.h.j.g.g.g.g.g.g.g.g.g.g.g.g.g.g.g.g.g.g.g.",
"g.g.g.g.g.g.g.g.g.:.&.F $.$.F $.%.F F F F &.;.g.g.g.g.g.g.g.g.g.g.h.h.h.h.h.j.h.g.j.j.k.g.g.g.g.g.1.g.g.g.g.g.g.g.g.1.g.g.g.g.g.",
"g.g.g.g.g.g.g.g.g.g.j.j.h.j.j.h.j.j.j.j.j.j.h.g.g.g.g.g.g.g.g.g.g.g.g.g.g.g.g.h.g.g.g.g.g.g.g.g.g.k.g.g.g.g.g.g.g.g.g.g.g.g.g.g."
};
