/* XPM */
static char * back_xpm[] = {
"16 16 8 1",
" 	c None",
".	c #171717",
"+	c #818181",
"@	c #B1B1B1",
"#	c #515151",
"$	c #99703B",
"%	c #D3A061",
"&	c #F4F4F4",
"                ",
"      ....      ",
"     .+@@+.     ",
"    .#@@@@#.    ",
"    .++@@++.    ",
"    .++++++.    ",
"    .+#++#+.    ",
"    .++##++.    ",
"   ..++++++..   ",
"  .@.#++++#.@.  ",
" .$%$+####+$%$. ",
"  .&#++++++#&.  ",
"  .&.##..##.&.  ",
"   ....  ....   ",
"                ",
"                "};
