/* XPM */
static char * wall_xpm[] = {
"32 32 3 1",
" 	c None",
".	c #555555",
"+	c #AAAAAA",
"................................",
"................................",
"..++++++++++++++++++++++++++++..",
"..++++++++++++++++++++++++++++..",
"..++++++++++++++++++++++++++++..",
"..++++++++++++++++++++++++++++..",
"..++++......++++++++......++++..",
"..++++......++++++++......++++..",
"..++++......++++++++......++++..",
"..++++......++++++++......++++..",
"..++++......++++++++......++++..",
"..++++......++++++++......++++..",
"..++++++++++++++++++++++++++++..",
"..++++++++++++++++++++++++++++..",
"..++++++++++++++++++++++++++++..",
"..++++++++++++++++++++++++++++..",
"..++++++++++++++++++++++++++++..",
"..++++++++++++++++++++++++++++..",
"..++++++++++++++++++++++++++++..",
"..++++++++++++++++++++++++++++..",
"..++++......++++++++......++++..",
"..++++......++++++++......++++..",
"..++++......++++++++......++++..",
"..++++......++++++++......++++..",
"..++++......++++++++......++++..",
"..++++......++++++++......++++..",
"..++++++++++++++++++++++++++++..",
"..++++++++++++++++++++++++++++..",
"..++++++++++++++++++++++++++++..",
"..++++++++++++++++++++++++++++..",
"................................",
"................................"};
